<svg xmlns="http://www.w3.org/2000/svg" viewBox="0 0 100 100" fill="currentColor" focusable="false" aria-hidden="true"><path d="M60.8 51.84a18.04 18.04 0 0 0-.42-1.9 9.63 9.63 0 0 0-2.25 5.64 8.1 8.1 0 0 0 .2 3.14c.14.38.67 1.8 1.37 1.55.57-.2.84-.8.97-1.33.3-1.25.24-2.52.24-3.8 0-1.09.09-2.22-.1-3.3zm-10.68-2.9A8.49 8.49 0 0 0 47.5 55c-.02 1.4-.1 6 2.38 5.09 2.15-.8 1.46-4.62 1.28-6.4-.16-1.61-.35-3.3-1.03-4.75z"/><path d="M49.86 23.4a25.91 25.91 0 0 0-25.88 25.88 25.88 25.88 0 0 0 6.1 16.68c1.49 1.84 5.36 7.33 5.36 10.58v3.42a1.67 1.67 0 0 0 1.2 2.96l9.9-.94 16.7-1.57a1.67 1.67 0 0 0 1.5-1.82 1.66 1.66 0 0 0-.51-1.05v-1c0-3.23 3.93-8.74 5.43-10.57a25.9 25.9 0 0 0-19.8-42.57zm18.1 22.96a10.21 10.21 0 0 0-6.18 2.2c.83 2.3.85 5.08.85 7.26 0 1.68.11 3.96-1.14 5.29-.87.9-2.33 1.27-3.36.37-2.68-2.37-2.08-7.49-.66-10.38a11.05 11.05 0 0 1 2.18-2.99c-.61-1.1-1.51-1.93-2.88-1.95a9.4 9.4 0 0 0-5.25 1.66 16.54 16.54 0 0 1 1.35 5.88c.15 1.84.42 3.98-.14 5.78-.94 2.95-5.53 3.25-6.45.14-1.07-3.62-.71-8.53 2.04-11.35.26-.27.55-.54.85-.8-.1-.13-.21-.26-.34-.38-1.05-1-2.26-1.88-3.8-1.34a6.77 6.77 0 0 0-2.9 2.1l-.1.11c.17.25.33.5.47.79a16.94 16.94 0 0 1 1.77 7.76c-.02 1.85-.3 3.82-1.81 5.06-1.34 1.1-3.1.74-4.12-.57-1.27-1.64-1.3-4.37-1.16-6.32.17-2.34 1.43-4.69 2.69-6.66a7.16 7.16 0 0 0-.77-.74c-.86-.7-1.59-.83-2.57-1.18-1.04-.38-.6-2.04.46-1.66 1.08.38 1.96.5 2.9 1.26.35.3.68.6 1 .91 1.24-1.44 3.07-2.72 4.91-2.73a6.49 6.49 0 0 1 4.82 2.5c2.43-1.63 5.57-2.72 8.1-1.48 1 .48 1.74 1.2 2.3 2.06 2-1.44 4.44-2.28 6.94-2.32 1.11-.03 1.1 1.7 0 1.72z"/><path d="M40.93 49.5a14.32 14.32 0 0 0-1.87 4.38c-.34 1.54-.55 4.94.72 6.2 1.9 1.86 2.75-2.03 2.76-3.24.03-2.26-.26-4.68-1.29-6.73l-.32-.6zm22 32L36.33 84a1.67 1.67 0 0 0 .32 3.33l26.6-2.5a1.67 1.67 0 0 0 1.5-1.82 1.67 1.67 0 0 0-1.82-1.5zm0 4.42l-26.6 2.5a1.67 1.67 0 1 0 .32 3.33l26.6-2.5a1.67 1.67 0 0 0-.32-3.33zM39 94.28h.03c.17.37 1.73.69 4.09.9v.32c.08 1.35 3.07 2.43 6.74 2.43 3.65 0 6.62-1.07 6.73-2.4l.01-.35c2.36-.21 3.92-.54 4.1-.9h.02v-3.64L39.04 92.7 39 94.3zm-6.2-76.13a34.48 34.48 0 0 1 1-.51l-4.63-9.47a.57.57 0 1 0-1.03.5l4.65 9.48zm-20.96 3.9l8.48 6.82.7-.9-8.47-6.8a.57.57 0 1 0-.71.89zM2.7 41.36l11.05 2.59.22-1.12-11.01-2.58a.57.57 0 1 0-.26 1.1zM14.23 59.7L2.7 62.4a.57.57 0 0 0-.43.69.57.57 0 0 0 .69.42l11.55-2.7a32.99 32.99 0 0 1-.3-1.11zm-2.4 22a.57.57 0 0 0 .72.88l9.6-7.7a34.15 34.15 0 0 1-.73-.88l-9.58 7.7zm76.2 0L78.47 74a38.76 38.76 0 0 1-.74.88l9.6 7.7a.57.57 0 1 0 .72-.89zm9.14-19.3l-11.52-2.7-.3 1.1 11.56 2.71a.57.57 0 1 0 .26-1.11zM86.12 43.94l11.05-2.6a.57.57 0 1 0-.26-1.1l-11.02 2.58.23 1.12zm1.92-21.88a.57.57 0 0 0 .08-.8.57.57 0 0 0-.8-.1l-8.46 6.8.69.9 8.49-6.8zM71.73 8.67a.57.57 0 0 0-1.02-.5l-4.65 9.47 1.02.52 4.65-9.49zm-21.22 5.26V3.5a.57.57 0 0 0-1.14 0v10.43a35.87 35.87 0 0 1 1.14 0z"/></svg>
